{"title":"Shakira ft. Rihanna - Can't  Forget You HD 720p x264 AAC E-Subs ","uid":9548346,"size":44044901,"categoryP":"video","categoryS":"music_videos","magnet":"?xt=urn:btih:9f8ae2311ce0798595899851ba4b649395657865&amp;dn=Shakira+ft.+Rihanna+-+Can%27t++Forget+You+HD+720p+x264+AAC+E-Subs+&amp;tr=udp%3A%2F%2Ftracker.openbittorrent.com%3A80&amp;tr=udp%3A%2F%2Fopen.demonii.com%3A1337&amp;tr=udp%3A%2F%2Ftracker.coppersurfer.tk%3A6969&amp;tr=udp%3A%2F%2Fexodus.desync.com%3A6969","seeders":21,"leechers":0,"uploader":"canc232","files":1,"time":1391181248,"description":"Shakira ft. Rihanna - Can't Remember to Forget You HD 720p x264 AAC E-Subs [GWC] \n\n\nCOVER : &lt;a href=&quot;\nhttp://imageshack.com/a/img833/4492/2x9b.jpg&quot; rel=&quot;nofollow&quot; target=&quot;_NEW&quot;&gt;\nhttp://imageshack.com/a/img833/4492/2x9b.jpg&lt;/a&gt;\n\n\nTHUMBNAIL IMAGE : &lt;a href=&quot;\nhttp://img703.imageshack.us/img703/8619/rcb6.jpg&quot; rel=&quot;nofollow&quot; target=&quot;_NEW&quot;&gt;\nhttp://img703.imageshack.us/img703/8619/rcb6.jpg&lt;/a&gt;\n\n\nMEDIA INFO :\nGeneral \nFormat : MPEG-4 \nFile size : 42.0 MiB \nDuration : 3mn 29s \nOverall bit rate mode : Variable \nOverall bit rate : 1 683 Kbps \n\nVideo \nFormat : AVC \nFormat profile : &lt;a class=&quot;__cf_email__&quot; href=&quot;/cdn-cgi/l/email-protection&quot; data-cfemail=&quot;1d507c74735d512e332c&quot;&gt;[email&amp;#160;protected]&lt;/a&gt;&lt;script cf-hash='f9e31' type=&quot;text/javascript&quot;&gt;\n/* &lt;![CDATA[ */!function(){try{var t=&quot;currentScript&quot;in document?document.currentScript:function(){for(var t=document.getElementsByTagName(&quot;script&quot;),e=t.length;e--;)if(t[e].getAttribute(&quot;cf-hash&quot;))return t[e]}();if(t&amp;&amp;t.previousSibling){var e,r,n,i,c=t.previousSibling,a=c.getAttribute(&quot;data-cfemail&quot;);if(a){for(e=&quot;&quot;,r=parseInt(a.substr(0,2),16),n=2;a.length-n;n+=2)i=parseInt(a.substr(n,2),16)^r,e+=String.fromCharCode(i);e=document.createTextNode(e),c.parentNode.replaceChild(e,c)}}}catch(u){}}();/* ]]&gt; */&lt;/script&gt; \nFormat settings, CABAC : Yes \nFormat settings, ReFrames : 3 frames \nDuration : 3mn 28s \nSource duration : 3mn 28s \nBit rate : 1 602 Kbps \nMaximum bit rate : 4 683 Kbps \nWidth : 1 280 pixels \nHeight : 720 pixels \nDisplay aspect ratio : 16:9 \nFrame rate mode : Variable \nFrame rate : 23.976 fps \nStream size : 39.8 MiB (95%) \nTitle : Shakira ft. Rihanna - Can't Remember to Forget You HD 720p x264 AAC E-Subs [GWC]  \n\nAudio \nFormat : AAC \nFormat profile : LC \nDuration : 3mn 28s \nBit rate mode : Variable \nChannel(s) : 2 channels \nSampling rate : 48.0 KHz \nStream size : 2.13 MiB\nLanguage : English \n\nText \nFormat : Timed Text \nDuration : 3mn 29s \nBit rate mode : Variable \nBit rate : 97 bps \nStream size : 2.47 KiB (0%) \nTitle : English Subtitle by [GWC] \nLanguage : English","torrent":{"xt":"urn:btih:9f8ae2311ce0798595899851ba4b649395657865","amp;dn":"Shakira+ft.+Rihanna+-+Can%27t++Forget+You+HD+720p+x264+AAC+E-Subs+","amp;tr":["udp%3A%2F%2Ftracker.openbittorrent.com%3A80","udp%3A%2F%2Fopen.demonii.com%3A1337","udp%3A%2F%2Ftracker.coppersurfer.tk%3A6969","udp%3A%2F%2Fexodus.desync.com%3A6969"],"infoHash":"9f8ae2311ce0798595899851ba4b649395657865","infoHashBuffer":{"type":"Buffer","data":[159,138,226,49,28,224,121,133,149,137,152,81,186,75,100,147,149,101,120,101]},"announce":[],"urlList":[]}}